<?xml version="1.0" encoding="UTF-8" standalone="no"?>
<!-- Created with Inkscape (http://www.inkscape.org/) -->

<svg
   xmlns:dc="http://purl.org/dc/elements/1.1/"
   xmlns:cc="http://creativecommons.org/ns#"
   xmlns:rdf="http://www.w3.org/1999/02/22-rdf-syntax-ns#"
   xmlns:svg="http://www.w3.org/2000/svg"
   xmlns="http://www.w3.org/2000/svg"
   xmlns:sodipodi="http://sodipodi.sourceforge.net/DTD/sodipodi-0.dtd"
   xmlns:inkscape="http://www.inkscape.org/namespaces/inkscape"
   width="744.09448819"
   height="1052.3622047"
   id="svg2"
   version="1.1"
   inkscape:version="0.48.4 r9939"
   sodipodi:docname="logo.svg">
  <defs
     id="defs4" />
  <sodipodi:namedview
     id="base"
     pagecolor="#ffffff"
     bordercolor="#666666"
     borderopacity="1.0"
     inkscape:pageopacity="0.0"
     inkscape:pageshadow="2"
     inkscape:zoom="8"
     inkscape:cx="216.95771"
     inkscape:cy="1532.4276"
     inkscape:document-units="px"
     inkscape:current-layer="layer1"
     showgrid="false"
     inkscape:window-width="2560"
     inkscape:window-height="1378"
     inkscape:window-x="-8"
     inkscape:window-y="-8"
     inkscape:window-maximized="1" />
  <metadata
     id="metadata7">
    <rdf:RDF>
      <cc:Work
         rdf:about="">
        <dc:format>image/svg+xml</dc:format>
        <dc:type
           rdf:resource="http://purl.org/dc/dcmitype/StillImage" />
        <dc:title></dc:title>
      </cc:Work>
    </rdf:RDF>
  </metadata>
  <g
     inkscape:label="Layer 1"
     inkscape:groupmode="layer"
     id="layer1">
    <path
       sodipodi:type="arc"
       style="fill:#000000;stroke:#000000;stroke-width:6.35811853;stroke-miterlimit:4;stroke-opacity:1;stroke-dasharray:none;stroke-dashoffset:0"
       id="path3781"
       sodipodi:cx="20.506096"
       sodipodi:cy="367.17572"
       sodipodi:rx="296.27774"
       sodipodi:ry="296.27774"
       d="m 316.78384,367.17572 a 296.27774,296.27774 0 1 1 -592.55548,0 296.27774,296.27774 0 1 1 592.55548,0 z"
       transform="matrix(0.78639618,0,0,0.78639618,105.31976,104.94664)" />
    <g
       id="g3831"
       style="fill:#ffffff;stroke:#ffffff"
       transform="translate(0.96653238,11.361589)">
      <g
         id="flowRoot3770"
         style="font-size:40px;font-style:normal;font-weight:normal;line-height:125%;letter-spacing:0px;word-spacing:0px;fill:#ffffff;fill-opacity:1;stroke:#ffffff;font-family:Sans"
         transform="matrix(4.7229605,0,0,4.9418838,4215.3042,1519.7935)">
        <path
           style="fill:#ffffff;stroke:#ffffff;stroke-width:2.06988692;stroke-miterlimit:4;stroke-opacity:1;stroke-dasharray:none"
           sodipodi:nodetypes="csccsscccccccccccccccc"
           inkscape:connector-curvature="0"
           id="path3779"
           d="m -868.78125,-247.25284 c -0.013,-0.46874 -0.0195,-0.82031 -0.0195,-1.05469 -10e-6,-1.3802 0.1953,-2.5716 0.58594,-3.57422 0.28644,-0.75519 0.74868,-1.51691 1.38672,-2.28515 0.46873,-0.55989 1.31183,-1.37694 2.52929,-2.45118 1.21743,-1.0742 2.00845,-1.93032 2.37305,-2.56836 0.36457,-0.638 0.54686,-1.33461 0.54687,-2.08984 -10e-6,-1.36716 -0.53387,-2.56834 -1.60156,-3.60352 -1.06772,-1.03513 -2.37631,-1.5527 -3.92578,-1.55273 -1.49741,3e-5 -2.7474,0.46878 -3.75,1.40625 -1.00261,0.93752 -1.66016,2.40237 -1.97266,4.39453 l -3.61328,-0.42969 c 0.32552,-2.66924 1.29232,-4.71351 2.90039,-6.13281 1.60807,-1.41924 3.73372,-2.12888 6.37696,-2.1289 2.79946,2e-5 5.03253,0.76174 6.69922,2.28515 1.66664,1.52346 2.49997,3.36591 2.5,5.52735 -3e-5,1.25002 -0.29299,2.40236 -0.87891,3.45703 -0.58596,1.0547 -1.73179,2.33725 -3.4375,3.84765 -1.14585,1.01564 -1.89455,1.76434 -2.24609,2.2461 -0.35158,0.48178 -0.612,1.03516 -0.78125,1.66015 -0.16929,0.62501 -0.26694,1.64064 -0.29297,3.04688 z" />
      </g>
      <g
         id="g3825"
         style="fill:#ffffff;stroke:#ffffff">
        <path
           style="fill:#ffffff;stroke:#ffffff;stroke-width:30;stroke-miterlimit:4;stroke-opacity:1;stroke-dasharray:none;stroke-dashoffset:0"
           inkscape:transform-center-y="-25.976153"
           d="M -107.08344,440.65485 67.456874,327.09086 127.29859,288.12663 m 29.49313,155.85692 -263.41045,0"
           id="path2985"
           inkscape:connector-curvature="0"
           sodipodi:nodetypes="ccccc" />
        <path
           sodipodi:type="arc"
           style="fill:#ffffff;fill-opacity:1;stroke:#ffffff;stroke-width:10;stroke-miterlimit:4;stroke-opacity:1;stroke-dasharray:none;stroke-dashoffset:0"
           id="path3817"
           sodipodi:cx="-220.875"
           sodipodi:cy="418.73718"
           sodipodi:rx="13.125"
           sodipodi:ry="13.125"
           d="m -207.75,418.73718 c 0,7.24874 -5.87626,13.125 -13.125,13.125 -7.24874,0 -13.125,-5.87626 -13.125,-13.125 0,-7.24873 5.87626,-13.125 13.125,-13.125 7.24874,0 13.125,5.87627 13.125,13.125 z"
           transform="translate(118,22.25)" />
        <path
           sodipodi:nodetypes="ccccc"
           inkscape:connector-curvature="0"
           id="path3821"
           d="M 348.04172,440.65485 173.50141,327.09086 113.65969,288.12663 m -29.49313,155.85692 263.41045,0"
           inkscape:transform-center-y="-25.976153"
           style="fill:#ffffff;stroke:#ffffff;stroke-width:30;stroke-miterlimit:4;stroke-opacity:1;stroke-dasharray:none;stroke-dashoffset:0" />
        <path
           transform="matrix(-1,0,0,1,122.95828,22.25)"
           d="m -207.75,418.73718 c 0,7.24874 -5.87626,13.125 -13.125,13.125 -7.24874,0 -13.125,-5.87626 -13.125,-13.125 0,-7.24873 5.87626,-13.125 13.125,-13.125 7.24874,0 13.125,5.87627 13.125,13.125 z"
           sodipodi:ry="13.125"
           sodipodi:rx="13.125"
           sodipodi:cy="418.73718"
           sodipodi:cx="-220.875"
           id="path3823"
           style="fill:#ffffff;fill-opacity:1;stroke:#ffffff;stroke-width:10;stroke-miterlimit:4;stroke-opacity:1;stroke-dasharray:none;stroke-dashoffset:0"
           sodipodi:type="arc" />
      </g>
    </g>
    <g
       id="g3840"
       transform="translate(609.52605,-1.4142136)">
      <g
         transform="matrix(4.7229605,0,0,4.9418838,4215.3042,1519.7935)"
         style="font-size:40px;font-style:normal;font-weight:normal;line-height:125%;letter-spacing:0px;word-spacing:0px;fill:#000000;fill-opacity:1;stroke:none;font-family:Sans"
         id="g3842">
        <path
           d="m -868.78125,-247.25284 c -0.013,-0.46874 -0.0195,-0.82031 -0.0195,-1.05469 -10e-6,-1.3802 0.1953,-2.5716 0.58594,-3.57422 0.28644,-0.75519 0.74868,-1.51691 1.38672,-2.28515 0.46873,-0.55989 1.31183,-1.37694 2.52929,-2.45118 1.21743,-1.0742 2.00845,-1.93032 2.37305,-2.56836 0.36457,-0.638 0.54686,-1.33461 0.54687,-2.08984 -10e-6,-1.36716 -0.53387,-2.56834 -1.60156,-3.60352 -1.06772,-1.03513 -2.37631,-1.5527 -3.92578,-1.55273 -1.49741,3e-5 -2.7474,0.46878 -3.75,1.40625 -1.00261,0.93752 -1.66016,2.40237 -1.97266,4.39453 l -3.61328,-0.42969 c 0.32552,-2.66924 1.29232,-4.71351 2.90039,-6.13281 1.60807,-1.41924 3.73372,-2.12888 6.37696,-2.1289 2.79946,2e-5 5.03253,0.76174 6.69922,2.28515 1.66664,1.52346 2.49997,3.36591 2.5,5.52735 -3e-5,1.25002 -0.29299,2.40236 -0.87891,3.45703 -0.58596,1.0547 -1.73179,2.33725 -3.4375,3.84765 -1.14585,1.01564 -1.89455,1.76434 -2.24609,2.2461 -0.35158,0.48178 -0.612,1.03516 -0.78125,1.66015 -0.16929,0.62501 -0.26694,1.64064 -0.29297,3.04688 z"
           id="path3844"
           inkscape:connector-curvature="0"
           sodipodi:nodetypes="csccsscccccccccccccccc"
           style="stroke:#000000;stroke-width:2.06988692;stroke-miterlimit:4;stroke-opacity:1;stroke-dasharray:none" />
      </g>
      <g
         id="g3846">
        <path
           sodipodi:nodetypes="ccccc"
           inkscape:connector-curvature="0"
           id="path3848"
           d="M -107.08344,440.65485 67.456874,327.09086 127.29859,288.12663 m 29.49313,155.85692 -263.41045,0"
           inkscape:transform-center-y="-25.976153"
           style="fill:none;stroke:#000000;stroke-width:30;stroke-miterlimit:4;stroke-opacity:1;stroke-dasharray:none;stroke-dashoffset:0" />
        <path
           transform="translate(118,22.25)"
           d="m -207.75,418.73718 c 0,7.24874 -5.87626,13.125 -13.125,13.125 -7.24874,0 -13.125,-5.87626 -13.125,-13.125 0,-7.24873 5.87626,-13.125 13.125,-13.125 7.24874,0 13.125,5.87627 13.125,13.125 z"
           sodipodi:ry="13.125"
           sodipodi:rx="13.125"
           sodipodi:cy="418.73718"
           sodipodi:cx="-220.875"
           id="path3850"
           style="fill:#000000;fill-opacity:1;stroke:#000000;stroke-width:10;stroke-miterlimit:4;stroke-opacity:1;stroke-dasharray:none;stroke-dashoffset:0"
           sodipodi:type="arc" />
        <path
           style="fill:none;stroke:#000000;stroke-width:30;stroke-miterlimit:4;stroke-opacity:1;stroke-dasharray:none;stroke-dashoffset:0"
           inkscape:transform-center-y="-25.976153"
           d="M 348.04172,440.65485 173.50141,327.09086 113.65969,288.12663 m -29.49313,155.85692 263.41045,0"
           id="path3852"
           inkscape:connector-curvature="0"
           sodipodi:nodetypes="ccccc" />
        <path
           sodipodi:type="arc"
           style="fill:#000000;fill-opacity:1;stroke:#000000;stroke-width:10;stroke-miterlimit:4;stroke-opacity:1;stroke-dasharray:none;stroke-dashoffset:0"
           id="path3854"
           sodipodi:cx="-220.875"
           sodipodi:cy="418.73718"
           sodipodi:rx="13.125"
           sodipodi:ry="13.125"
           d="m -207.75,418.73718 c 0,7.24874 -5.87626,13.125 -13.125,13.125 -7.24874,0 -13.125,-5.87626 -13.125,-13.125 0,-7.24873 5.87626,-13.125 13.125,-13.125 7.24874,0 13.125,5.87627 13.125,13.125 z"
           transform="matrix(-1,0,0,1,122.95828,22.25)" />
      </g>
    </g>
    <path
       transform="matrix(0.78639618,0,0,0.78639618,169.66648,-453.66772)"
       style="fill:#000000;stroke:#000000;stroke-width:6.35811853;stroke-miterlimit:4;stroke-dashoffset:0;stroke-opacity:1"
       d="m 316.78384,367.17572 c 0,163.62968 -132.64807,296.27774 -296.277744,296.27774 -163.629676,0 -296.277736,-132.64806 -296.277736,-296.27774 0,-163.62968 132.64806,-296.27774 296.277736,-296.27774 163.629674,0 296.277744,132.64806 296.277744,296.27774 z"
       id="path3856" />
    <g
       transform="translate(65.313249,-547.25277)"
       style="fill:#ffffff;stroke:#ffffff"
       id="g3858">
      <g
         transform="matrix(4.7229605,0,0,4.9418838,4215.3042,1519.7935)"
         style="font-size:40px;font-style:normal;font-weight:normal;line-height:125%;letter-spacing:0px;word-spacing:0px;fill:#ffffff;fill-opacity:1;stroke:#ffffff;font-family:Sans"
         id="g3860">
        <path
           d="m -868.78125,-247.25284 c -0.013,-0.46874 -0.0195,-0.82031 -0.0195,-1.05469 -10e-6,-1.3802 0.1953,-2.5716 0.58594,-3.57422 0.28644,-0.75519 0.74868,-1.51691 1.38672,-2.28515 0.46873,-0.55989 1.31183,-1.37694 2.52929,-2.45118 1.21743,-1.0742 2.00845,-1.93032 2.37305,-2.56836 0.36457,-0.638 0.54686,-1.33461 0.54687,-2.08984 -10e-6,-1.36716 -0.53387,-2.56834 -1.60156,-3.60352 -1.06772,-1.03513 -2.37631,-1.5527 -3.92578,-1.55273 -1.49741,3e-5 -2.7474,0.46878 -3.75,1.40625 -1.00261,0.93752 -1.66016,2.40237 -1.97266,4.39453 l -3.61328,-0.42969 c 0.32552,-2.66924 1.29232,-4.71351 2.90039,-6.13281 1.60807,-1.41924 3.73372,-2.12888 6.37696,-2.1289 2.79946,2e-5 5.03253,0.76174 6.69922,2.28515 1.66664,1.52346 2.49997,3.36591 2.5,5.52735 -3e-5,1.25002 -0.29299,2.40236 -0.87891,3.45703 -0.58596,1.0547 -1.73179,2.33725 -3.4375,3.84765 -1.14585,1.01564 -1.89455,1.76434 -2.24609,2.2461 -0.35158,0.48178 -0.612,1.03516 -0.78125,1.66015 -0.16929,0.62501 -0.26694,1.64064 -0.29297,3.04688 z"
           id="path3862"
           inkscape:connector-curvature="0"
           sodipodi:nodetypes="csccsscccccccccccccccc"
           style="fill:#ffffff;stroke:#ffffff;stroke-width:2.06988692;stroke-miterlimit:4;stroke-opacity:1;stroke-dasharray:none" />
      </g>
      <g
         style="fill:#ffffff;stroke:#ffffff"
         id="g3864">
        <path
           sodipodi:nodetypes="ccccc"
           inkscape:connector-curvature="0"
           id="path3866"
           d="M -107.08344,440.65485 67.456874,327.09086 127.29859,288.12663 m 29.49313,155.85692 -263.41045,0"
           inkscape:transform-center-y="-25.976153"
           style="fill:#ffffff;stroke:#ffffff;stroke-width:30;stroke-miterlimit:4;stroke-opacity:1;stroke-dasharray:none;stroke-dashoffset:0" />
        <path
           transform="translate(118,22.25)"
           style="fill:#ffffff;fill-opacity:1;stroke:#ffffff;stroke-width:10;stroke-miterlimit:4;stroke-dashoffset:0;stroke-opacity:1"
           d="m -207.75,418.73718 c 0,7.24874 -5.87626,13.125 -13.125,13.125 -7.24874,0 -13.125,-5.87626 -13.125,-13.125 0,-7.24873 5.87626,-13.125 13.125,-13.125 7.24874,0 13.125,5.87627 13.125,13.125 z"
           id="path3868" />
        <path
           style="fill:#ffffff;stroke:#ffffff;stroke-width:30;stroke-miterlimit:4;stroke-opacity:1;stroke-dasharray:none;stroke-dashoffset:0"
           inkscape:transform-center-y="-25.976153"
           d="M 348.04172,440.65485 173.50141,327.09086 113.65969,288.12663 m -29.49313,155.85692 263.41045,0"
           id="path3870"
           inkscape:connector-curvature="0"
           sodipodi:nodetypes="ccccc" />
        <path
           transform="matrix(-1,0,0,1,122.95828,22.25)"
           style="fill:#ffffff;fill-opacity:1;stroke:#ffffff;stroke-width:10;stroke-miterlimit:4;stroke-dashoffset:0;stroke-opacity:1"
           d="m -207.75,418.73718 c 0,7.24874 -5.87626,13.125 -13.125,13.125 -7.24874,0 -13.125,-5.87626 -13.125,-13.125 0,-7.24873 5.87626,-13.125 13.125,-13.125 7.24874,0 13.125,5.87627 13.125,13.125 z"
           id="path3872" />
      </g>
    </g>
    <path
       style="font-size:40px;font-style:normal;font-weight:normal;line-height:125%;letter-spacing:0px;word-spacing:0px;fill:#ff0000;fill-opacity:1;stroke:#ff0000;stroke-width:10.00000095;stroke-miterlimit:4;stroke-opacity:1;stroke-dasharray:none;font-family:Sans"
       sodipodi:nodetypes="csccsscccccccccccccccc"
       inkscape:connector-curvature="0"
       id="path3899"
       d="m 808.84427,-248.64696 c -0.0614,-2.31646 -0.0921,-4.05388 -0.0921,-5.21216 -5e-5,-6.82079 0.92239,-12.70855 2.76737,-17.66338 1.35284,-3.73206 3.53598,-7.49639 6.54942,-11.29295 2.21379,-2.76691 6.19572,-6.80467 11.94574,-12.11344 5.74987,-5.30857 9.48583,-9.53942 11.20782,-12.69254 1.72185,-3.15292 2.5828,-6.59549 2.58284,-10.32775 -4e-5,-6.75634 -2.52144,-12.69243 -7.5641,-17.80817 -5.0428,-5.11549 -11.22322,-7.67327 -18.5413,-7.67341 -7.07221,1.4e-4 -12.97587,2.31665 -17.71111,6.94952 -4.73528,4.63312 -7.84087,11.87223 -9.31679,21.71726 l -17.06538,-2.12348 c 1.53742,-13.19108 6.10358,-23.29362 13.69843,-30.30764 7.59485,-7.01371 17.63421,-10.52067 30.11813,-10.52077 13.22174,10e-5 23.76844,3.76443 31.64015,11.29294 7.87147,7.52877 11.80726,16.63394 11.8074,27.31553 -1.4e-4,6.17745 -1.38378,11.87218 -4.15106,17.08424 -2.76746,5.2122 -8.17917,11.55041 -16.23517,19.01463 -5.41181,5.01918 -8.94789,8.71917 -10.6082,11.09997 -1.6605,2.3809 -2.89045,5.11564 -3.68981,8.20427 -0.79955,3.08873 -1.26075,8.10785 -1.38369,15.05733 z" />
    <path
       style="fill:#ff0000;stroke:#ff0000;stroke-width:30;stroke-miterlimit:4;stroke-opacity:1;stroke-dasharray:none;stroke-dashoffset:0"
       inkscape:transform-center-y="-25.976153"
       d="m 589.67616,-105.89081 174.54031,-113.56399 59.84172,-38.96423 m 29.49313,155.85692 -263.41045,0"
       id="path3903"
       inkscape:connector-curvature="0"
       sodipodi:nodetypes="ccccc" />
    <path
       id="path3905"
       d="m 607.0096,-105.55848 c 0,7.24874 -5.87626,13.125 -13.125,13.125 -7.24874,0 -13.125,-5.87626 -13.125,-13.125 0,-7.24873 5.87626,-13.125 13.125,-13.125 7.24874,0 13.125,5.87627 13.125,13.125 z"
       style="fill:#ff0000;fill-opacity:1;stroke:#ff0000;stroke-width:10;stroke-miterlimit:4;stroke-opacity:1;stroke-dashoffset:0"
       inkscape:connector-curvature="0" />
    <path
       sodipodi:nodetypes="ccccc"
       inkscape:connector-curvature="0"
       id="path3907"
       d="M 1044.8013,-105.89081 870.26101,-219.4548 810.41929,-258.41903 m -29.49313,155.85692 263.41044,0"
       inkscape:transform-center-y="-25.976153"
       style="fill:#ff0000;stroke:#ff0000;stroke-width:30;stroke-miterlimit:4;stroke-opacity:1;stroke-dasharray:none;stroke-dashoffset:0" />
    <path
       id="path3909"
       d="m 1027.4679,-105.55848 c 0,7.24874 5.8762,13.125 13.125,13.125 7.2487,0 13.125,-5.87626 13.125,-13.125 0,-7.24873 -5.8763,-13.125 -13.125,-13.125 -7.2488,0 -13.125,5.87627 -13.125,13.125 z"
       style="fill:#ff0000;fill-opacity:1;stroke:#ff0000;stroke-width:10;stroke-miterlimit:4;stroke-opacity:1;stroke-dashoffset:0"
       inkscape:connector-curvature="0" />
    <path
       id="path3928"
       d="m 208.01132,-506.48788 c 0,5.82753 -4.72415,10.55167 -10.55167,10.55167 -5.82752,0 -10.55167,-4.72414 -10.55167,-10.55167 0,-5.82752 4.72415,-10.55166 10.55167,-10.55166 5.82752,0 10.55167,4.72414 10.55167,10.55166 z"
       style="fill:#ff0000;stroke:none;stroke-width:0.22643866000000001;stroke-miterlimit:4;stroke-opacity:1;stroke-dashoffset:0"
       inkscape:connector-curvature="0"
       inkscape:export-filename="C:\dev\runko-js\core\images\logosmall.png"
       inkscape:export-xdpi="90"
       inkscape:export-ydpi="90" />
    <g
       id="g3930"
       style="fill:#ff0000;stroke:#ffffff"
       transform="matrix(0.04528773,0,0,0.04528773,192.00342,-523.80276)"
       inkscape:export-filename="C:\dev\runko-js\core\images\logosmall.png"
       inkscape:export-xdpi="90"
       inkscape:export-ydpi="90">
      <g
         id="g3932"
         style="font-size:40px;font-style:normal;font-weight:normal;line-height:125%;letter-spacing:0px;word-spacing:0px;fill:#ff0000;fill-opacity:1;stroke:#ffffff;font-family:Sans"
         transform="matrix(4.7229605,0,0,4.9418838,4215.3042,1519.7935)">
        <path
           style="fill:#ff0000;stroke:#ffffff;stroke-width:2.06988692000000010;stroke-miterlimit:4;stroke-opacity:1;stroke-dasharray:none"
           sodipodi:nodetypes="csccsscccccccccccccccc"
           inkscape:connector-curvature="0"
           id="path3934"
           d="m -868.78125,-247.25284 c -0.013,-0.46874 -0.0195,-0.82031 -0.0195,-1.05469 -10e-6,-1.3802 0.1953,-2.5716 0.58594,-3.57422 0.28644,-0.75519 0.74868,-1.51691 1.38672,-2.28515 0.46873,-0.55989 1.31183,-1.37694 2.52929,-2.45118 1.21743,-1.0742 2.00845,-1.93032 2.37305,-2.56836 0.36457,-0.638 0.54686,-1.33461 0.54687,-2.08984 -10e-6,-1.36716 -0.53387,-2.56834 -1.60156,-3.60352 -1.06772,-1.03513 -2.37631,-1.5527 -3.92578,-1.55273 -1.49741,3e-5 -2.7474,0.46878 -3.75,1.40625 -1.00261,0.93752 -1.66016,2.40237 -1.97266,4.39453 l -3.61328,-0.42969 c 0.32552,-2.66924 1.29232,-4.71351 2.90039,-6.13281 1.60807,-1.41924 3.73372,-2.12888 6.37696,-2.1289 2.79946,2e-5 5.03253,0.76174 6.69922,2.28515 1.66664,1.52346 2.49997,3.36591 2.5,5.52735 -3e-5,1.25002 -0.29299,2.40236 -0.87891,3.45703 -0.58596,1.0547 -1.73179,2.33725 -3.4375,3.84765 -1.14585,1.01564 -1.89455,1.76434 -2.24609,2.2461 -0.35158,0.48178 -0.612,1.03516 -0.78125,1.66015 -0.16929,0.62501 -0.26694,1.64064 -0.29297,3.04688 z" />
      </g>
      <g
         id="g3936"
         style="fill:#ff0000;stroke:#ffffff">
        <path
           style="fill:#ff0000;stroke:#ffffff;stroke-width:30;stroke-miterlimit:4;stroke-opacity:1;stroke-dasharray:none;stroke-dashoffset:0"
           inkscape:transform-center-y="-25.976153"
           d="M -107.08344,440.65485 67.456874,327.09086 127.29859,288.12663 m 29.49313,155.85692 -263.41045,0"
           id="path3938"
           inkscape:connector-curvature="0"
           sodipodi:nodetypes="ccccc" />
        <path
           id="path3940"
           d="m -207.75,418.73718 c 0,7.24874 -5.87626,13.125 -13.125,13.125 -7.24874,0 -13.125,-5.87626 -13.125,-13.125 0,-7.24873 5.87626,-13.125 13.125,-13.125 7.24874,0 13.125,5.87627 13.125,13.125 z"
           style="fill:#ff0000;fill-opacity:1;stroke:#ffffff;stroke-width:10;stroke-miterlimit:4;stroke-opacity:1;stroke-dashoffset:0"
           transform="translate(118,22.25)"
           inkscape:connector-curvature="0" />
        <path
           sodipodi:nodetypes="ccccc"
           inkscape:connector-curvature="0"
           id="path3942"
           d="M 348.04172,440.65485 173.50141,327.09086 113.65969,288.12663 m -29.49313,155.85692 263.41045,0"
           inkscape:transform-center-y="-25.976153"
           style="fill:#ff0000;stroke:#ffffff;stroke-width:30;stroke-miterlimit:4;stroke-opacity:1;stroke-dasharray:none;stroke-dashoffset:0" />
        <path
           id="path3944"
           d="m -207.75,418.73718 c 0,7.24874 -5.87626,13.125 -13.125,13.125 -7.24874,0 -13.125,-5.87626 -13.125,-13.125 0,-7.24873 5.87626,-13.125 13.125,-13.125 7.24874,0 13.125,5.87627 13.125,13.125 z"
           style="fill:#ff0000;fill-opacity:1;stroke:#ffffff;stroke-width:10;stroke-miterlimit:4;stroke-opacity:1;stroke-dashoffset:0"
           transform="matrix(-1,0,0,1,122.95828,22.25)"
           inkscape:connector-curvature="0" />
      </g>
    </g>
    <rect
       style="fill:#ff0000;fill-opacity:1;stroke:none"
       id="rect3946"
       width="16"
       height="16"
       x="149.78969"
       y="-493.13782"
       inkscape:export-filename="C:\dev\runko-js\core\images\logosmall2.png"
       inkscape:export-xdpi="90"
       inkscape:export-ydpi="90" />
    <path
       d="m 157.47165,-486.65592 c -0.002,-0.0878 -0.003,-0.15359 -0.003,-0.19748 0,-0.25842 0.0349,-0.4815 0.10485,-0.66922 0.0513,-0.1414 0.13397,-0.28402 0.24815,-0.42787 0.0839,-0.10483 0.23474,-0.25781 0.45259,-0.45895 0.21785,-0.20113 0.3594,-0.36143 0.42464,-0.48089 0.0652,-0.11946 0.0979,-0.24989 0.0979,-0.3913 0,-0.25598 -0.0955,-0.48088 -0.28659,-0.67471 -0.19106,-0.19381 -0.42522,-0.29072 -0.70248,-0.29073 -0.26795,1e-5 -0.49163,0.0878 -0.67104,0.26331 -0.17941,0.17553 -0.29707,0.44981 -0.35299,0.82281 l -0.64657,-0.0804 c 0.0582,-0.49978 0.23125,-0.88254 0.519,-1.14829 0.28775,-0.26573 0.66812,-0.3986 1.14111,-0.39861 0.50094,1e-5 0.90053,0.14263 1.19878,0.42787 0.29823,0.28524 0.44735,0.63022 0.44735,1.03492 0,0.23405 -0.0524,0.44981 -0.15727,0.64728 -0.10486,0.19748 -0.30989,0.43762 -0.61512,0.72043 -0.20504,0.19016 -0.33901,0.33035 -0.40192,0.42055 -0.0629,0.0902 -0.10951,0.19382 -0.1398,0.31084 -0.0303,0.11703 -0.0478,0.30719 -0.0524,0.57049 z"
       id="path3952"
       inkscape:connector-curvature="0"
       sodipodi:nodetypes="csccsscccccccccccccccc"
       style="font-size:40px;font-style:normal;font-weight:normal;line-height:125%;letter-spacing:0px;word-spacing:0px;fill:#ffffff;fill-opacity:1;stroke:#ffffff;stroke-width:1.2;stroke-miterlimit:4;stroke-opacity:1;stroke-dasharray:none;font-family:Sans" />
    <path
       sodipodi:nodetypes="ccccc"
       inkscape:connector-curvature="0"
       id="path3956"
       d="m 149.16786,-480.62221 6.61294,-4.30269 2.26727,-1.47626 m 1.11743,5.90507 -9.98004,0"
       inkscape:transform-center-y="-25.976153"
       style="fill:#ffffff;stroke:#ffffff;stroke-width:2;stroke-miterlimit:4;stroke-opacity:1;stroke-dasharray:none;stroke-dashoffset:0" />
    <path
       inkscape:connector-curvature="0"
       style="fill:#ffffff;fill-opacity:1;stroke:#ffffff;stroke-width:1;stroke-miterlimit:4;stroke-opacity:1;stroke-dasharray:none;stroke-dashoffset:0"
       d="m 149.82459,-480.60962 c 0,0.27464 -0.22264,0.49727 -0.49728,0.49727 -0.27464,0 -0.49728,-0.22263 -0.49728,-0.49727 0,-0.27464 0.22264,-0.49728 0.49728,-0.49728 0.27464,0 0.49728,0.22264 0.49728,0.49728 z"
       id="path3958" />
    <path
       style="fill:#ffffff;stroke:#ffffff;stroke-width:2;stroke-miterlimit:4;stroke-opacity:1;stroke-dasharray:none;stroke-dashoffset:0"
       inkscape:transform-center-y="-25.976153"
       d="m 166.41153,-480.62221 -6.61294,-4.30269 -2.26727,-1.47626 m -1.11743,5.90507 9.98004,0"
       id="path3960"
       inkscape:connector-curvature="0"
       sodipodi:nodetypes="ccccc" />
    <path
       inkscape:connector-curvature="0"
       style="fill:#ffffff;fill-opacity:1;stroke:#ffffff;stroke-width:1;stroke-miterlimit:4;stroke-opacity:1;stroke-dasharray:none;stroke-dashoffset:0"
       d="m 165.75481,-480.60962 c 0,0.27464 0.22264,0.49727 0.49728,0.49727 0.27464,0 0.49728,-0.22263 0.49728,-0.49727 0,-0.27464 -0.22264,-0.49728 -0.49728,-0.49728 -0.27464,0 -0.49728,0.22264 -0.49728,0.49728 z"
       id="path3962" />
  </g>
</svg>
